<?xml version="1.0" encoding="UTF-8"?>
<svg width="311px" height="53px" viewBox="0 0 311 53" version="1.1" xmlns="http://www.w3.org/2000/svg" xmlns:xlink="http://www.w3.org/1999/xlink">
    <!-- Generator: Sketch 48.2 (47327) - http://www.bohemiancoding.com/sketch -->
    <title>Site Logo (Scalable)</title>
    <desc>Created with Sketch.</desc>
    <defs></defs>
    <g id="Mobile" stroke="none" stroke-width="1" fill="none" fill-rule="evenodd" transform="translate(-23.000000, -18.000000)">
        <g id="Site-Logo-(Scalable)" transform="translate(23.000000, 0.000000)" fill="#FFFFFF">
            <g id="Group-3" transform="translate(0.000000, 16.882353)">
                <g id="Group-2">
                    <polygon id="&lt;" points="28.8800473 44.6592563 0.832429305 28.7967218 0.832429305 24.5572917 28.8800473 8.83607154 28.8800473 13.9233877 6.38195801 26.8536497 28.8800473 39.4659544"></polygon>
                    <polygon id="&gt;" points="138.706554 28.7967218 110.658936 44.6592563 110.658936 39.4659544 133.157025 26.8536497 110.658936 13.9233877 110.658936 8.83607154 138.706554 24.5572917"></polygon>
                    <g id="Group" transform="translate(50.182537, 26.922440) rotate(-17.000000) translate(-50.182537, -26.922440) translate(25.011341, 6.020479)">
                        <path d="M3.78952716,41.7104846 C7.03303594,40.2598658 10.6880306,37.5447384 14.754511,33.5651023 C22.1254157,25.9655958 28.2996367,18.5288623 33.2771739,11.254902 C23.734945,17.4187385 15.6837244,23.115641 9.12351217,28.3456095 C4.17995835,32.1896594 1.13878763,35.33596 0,37.7845115 C1.03384567,38.4580429 1.76758853,39.0194355 2.20122857,39.4686893 C2.63486862,39.917943 3.16430148,40.6652081 3.78952716,41.7104846 Z" id="Line" transform="translate(16.638587, 26.482693) rotate(180.000000) translate(-16.638587, -26.482693) "></path>
                        <path d="M45.4816178,0.186590857 C46.5952433,0.950948888 47.5229202,1.83387086 48.2646485,2.83535677 C49.0063769,3.83684268 49.4513507,4.59528948 49.5995701,5.11069717 C49.0325581,7.13052855 48.5875843,8.42779098 48.2646485,9.00248447 C46.6360395,11.900742 44.5755274,13.4855443 43.1120149,14.0991382 C39.4311573,15.6423788 33.6394298,15.2566118 30.3211961,13.3304755 C28.3545025,12.1888681 33.1530198,14.6431339 36.7537249,6.76001614 C39.1541949,1.50460431 42.0634925,-0.686537448 45.4816178,0.186590857 Z" id="Line-2" transform="translate(39.731850, 7.525808) rotate(180.000000) translate(-39.731850, -7.525808) "></path>
                    </g>
                    <rect id="Rectangle" x="68.2608696" y="23.3137255" width="39.25" height="8.03921569" rx="4.01960784"></rect>
                </g>
                <path d="M151.240489,18.1486864 L156.311725,18.1486864 C158.228794,18.1486864 159.763371,18.6024579 160.915501,19.5100146 C162.067631,20.4175712 162.643687,21.6676672 162.643687,23.2603401 C162.643687,24.8619106 162.069992,26.1409234 160.922584,27.0974169 C159.775175,28.0539104 158.27129,28.53215 156.410883,28.53215 L153.563625,28.53215 L153.563625,36.9803922 L151.240489,36.9803922 L151.240489,18.1486864 Z M153.563625,26.6236213 L156.085078,26.6236213 C158.814304,26.6236213 160.178897,25.5470262 160.178897,23.3938036 C160.178897,22.3972709 159.808237,21.5920489 159.066908,20.9781135 C158.325578,20.3641781 157.369419,20.0572151 156.198401,20.0572151 L153.563625,20.0572151 L153.563625,26.6236213 Z M181.682071,36.9803922 L179.245611,36.9803922 L177.035798,30.3872932 L170.477189,30.3872932 L168.239046,36.9803922 L165.830917,36.9803922 L172.361195,18.1486864 L175.151792,18.1486864 L181.682071,36.9803922 Z M176.370022,28.4787646 L173.749411,20.6844937 L171.142966,28.4787646 L176.370022,28.4787646 Z M195.57839,36.9803922 L186.498328,36.9803922 L186.498328,35.0718635 L189.940536,35.0718635 L189.940536,20.0572151 L186.498328,20.0572151 L186.498328,18.1486864 L195.57839,18.1486864 L195.57839,20.0572151 L192.263672,20.0572151 L192.263672,35.0718635 L195.57839,35.0718635 L195.57839,36.9803922 Z M214.574277,36.9803922 L211.996163,36.9803922 L204.828438,22.1125536 L204.828438,36.9803922 L202.505302,36.9803922 L202.505302,18.1486864 L205.097582,18.1486864 L212.293637,32.8830614 L212.293637,18.1486864 L214.574277,18.1486864 L214.574277,36.9803922 Z M233.30102,19.9237515 L227.139043,19.9237515 L227.139043,36.9803922 L224.830073,36.9803922 L224.830073,19.9237515 L218.639765,19.9237515 L218.639765,18.1486864 L233.30102,18.1486864 L233.30102,19.9237515 Z M258.326395,36.9803922 L256.003259,36.9803922 L256.003259,27.6379442 L249.16134,27.6379442 L249.16134,36.9803922 L246.838204,36.9803922 L246.838204,18.1486864 L249.16134,18.1486864 L249.16134,25.7160692 L256.003259,25.7160692 L256.003259,18.1486864 L258.326395,18.1486864 L258.326395,36.9803922 Z M277.336447,19.9237515 L271.17447,19.9237515 L271.17447,36.9803922 L268.8655,36.9803922 L268.8655,19.9237515 L262.675192,19.9237515 L262.675192,18.1486864 L277.336447,18.1486864 L277.336447,19.9237515 Z M293.839212,36.9803922 L291.601069,36.9803922 L291.601069,20.8313036 L288.583825,28.5588427 L286.388178,28.5588427 L283.370935,20.8313036 L283.370935,36.9803922 L281.132791,36.9803922 L281.132791,18.1486864 L284.150035,18.1486864 L287.493084,26.7303922 L290.821968,18.1486864 L293.839212,18.1486864 L293.839212,36.9803922 Z M310.611121,36.9803922 L299.732045,36.9803922 L299.732045,18.1486864 L302.055181,18.1486864 L302.055181,35.0718635 L310.611121,35.0718635 L310.611121,36.9803922 Z" id="PAINT-HTML"></path>
            </g>
        </g>
    </g>
</svg>